<svg width="700" height="400" xmlns="http://www.w3.org/2000/svg" style="background:#fff">
  <!-- Blokken -->
  <rect x="40" y="40" width="120" height="50" fill="#e0e0e0" stroke="#333"/>
  <text x="100" y="70" font-size="14" text-anchor="middle">Load Cell</text>

  <rect x="40" y="140" width="120" height="50" fill="#e0e0e0" stroke="#333"/>
  <text x="100" y="170" font-size="14" text-anchor="middle">AS5600 Encoder</text>

  <rect x="220" y="90" width="170" height="70" fill="#c0eaff" stroke="#333"/>
  <text x="305" y="120" font-size="14" text-anchor="middle">Arduino (Nano/Micro)</text>
  <text x="305" y="140" font-size="12" text-anchor="middle">Closed-loop Logic</text>

  <rect x="440" y="90" width="120" height="50" fill="#e0e0e0" stroke="#333"/>
  <text x="500" y="120" font-size="14" text-anchor="middle">PID Controller</text>

  <rect x="600" y="90" width="80" height="50" fill="#e0e0e0" stroke="#333"/>
  <text x="640" y="120" font-size="13" text-anchor="middle">BTS7960</text>
  <text x="640" y="135" font-size="12" text-anchor="middle">H-Bridge</text>

  <rect x="600" y="200" width="80" height="50" fill="#e0e0e0" stroke="#333"/>
  <text x="640" y="230" font-size="14" text-anchor="middle">DC Motor</text>

  <!-- Rechte witte lijnen met zwarte rand -->
  <line x1="160" y1="65" x2="220" y2="125" stroke="#fff" stroke-width="6"/>
  <line x1="160" y1="65" x2="220" y2="125" stroke="#000" stroke-width="2"/>
  <line x1="160" y1="165" x2="220" y2="125" stroke="#fff" stroke-width="6"/>
  <line x1="160" y1="165" x2="220" y2="125" stroke="#000" stroke-width="2"/>
  <line x1="390" y1="125" x2="440" y2="115" stroke="#fff" stroke-width="6"/>
  <line x1="390" y1="125" x2="440" y2="115" stroke="#000" stroke-width="2"/>
  <line x1="560" y1="115" x2="600" y2="115" stroke="#fff" stroke-width="6"/>
  <line x1="560" y1="115" x2="600" y2="115" stroke="#000" stroke-width="2"/>
  <line x1="640" y1="140" x2="640" y2="200" stroke="#fff" stroke-width="6"/>
  <line x1="640" y1="140" x2="640" y2="200" stroke="#000" stroke-width="2"/>
  <line x1="600" y1="225" x2="390" y2="160" stroke="#fff" stroke-width="6"/>
  <line x1="600" y1="225" x2="390" y2="160" stroke="#000" stroke-width="2"/>

  <!-- Pijlpuntjes -->
  <polygon points="220,125 228,120 228,130" fill="#000"/>
  <polygon points="440,115 448,110 448,120" fill="#000"/>
  <polygon points="600,115 608,110 608,120" fill="#000"/>
  <polygon points="640,200 635,192 645,192" fill="#000"/>
  <polygon points="600,225 608,220 608,230" fill="#000"/>

  <!-- Labels -->
  <text x="190" y="60" font-size="12" text-anchor="middle">Kracht</text>
  <text x="190" y="180" font-size="12" text-anchor="middle">Hoek/positie</text>
  <text x="415" y="110" font-size="12" text-anchor="middle">Target/Feedback</text>
  <text x="580" y="110" font-size="12" text-anchor="middle">PWM</text>
  <text x="660" y="180" font-size="12" text-anchor="start">Motorstroom</text>
  <text x="500" y="180" font-size="12" text-anchor="middle">Encoder feedback</text>
</svg>
